<svg width="1048" height="1170" viewBox="0 0 1048 1170" fill="none" xmlns="http://www.w3.org/2000/svg">
<path d="M3.10351e-06 0H34C54.4345 0 71 16.5655 71 37V241.5C71 261.106 55.1061 277 35.5 277C15.8939 277 3.10351e-06 261.106 3.10351e-06 241.5V0Z" fill="#D9D9D9"/>
<path d="M241.5 0C261.106 0 277 15.8939 277 35.5C277 55.1061 261.106 71 241.5 71L37 71C16.5655 71 7.24099e-07 54.4345 1.61732e-06 34L3.10351e-06 0H241.5Z" fill="#D9D9D9"/>
<path d="M1048 1170L1014 1170C993.565 1170 977 1153.43 977 1133L977 928.5C977 908.894 992.894 893 1012.5 893C1032.11 893 1048 908.894 1048 928.5L1048 1170Z" fill="#D9D9D9"/>
<path d="M806.5 1170C786.894 1170 771 1154.11 771 1134.5C771 1114.89 786.894 1099 806.5 1099L1011 1099C1031.43 1099 1048 1115.57 1048 1136L1048 1170L806.5 1170Z" fill="#D9D9D9"/>
<path d="M1048 6.41387e-05L1048 34.0001C1048 54.4346 1031.43 71.0001 1011 71.0001L806.5 71.0001C786.894 71 771 55.1062 771 35.5C771 15.8939 786.894 5.27254e-05 806.5 5.35824e-05L1048 6.41387e-05Z" fill="#D9D9D9"/>
<path d="M1048 241.5C1048 261.106 1032.11 277 1012.5 277C992.894 277 977 261.106 977 241.5L977 37.0001C977 16.5655 993.565 5.93798e-05 1014 6.11663e-05L1048 6.41387e-05L1048 241.5Z" fill="#D9D9D9"/>
<path d="M9.15527e-05 1170C9.11066e-05 1159.79 9.05684e-05 1147.48 9.00664e-05 1136C8.91732e-05 1115.56 16.5656 1099 37.0001 1099L241.5 1099C261.106 1099 277 1114.89 277 1134.5C277 1154.11 261.126 1170 241.52 1170C186.148 1170 77.5066 1170 9.15527e-05 1170Z" fill="#D9D9D9"/>
<path d="M8.09956e-05 928.48C8.01385e-05 908.874 15.894 893 35.5001 893C55.1062 893 71.0001 908.894 71.0001 928.5L71.0001 1133C71.0001 1153.43 54.4375 1170 34.003 1170C22.518 1170 10.206 1170 9.15527e-05 1170C8.81648e-05 1092.49 8.34159e-05 983.852 8.09956e-05 928.48Z" fill="#D9D9D9"/>
</svg>
